STARTFONT 2.1
FONT -FontForge-Ostrich Sans-Heavy-R-Normal-Sans-18-170-75-75--64--
SIZE 17 75 75
FONTBOUNDINGBOX 13 20 -2 -4
COMMENT "Generated by fontforge, http://fontforge.sourceforge.net"
COMMENT "Copyright (c) 2013 by The League of Moveable Type. All rights reserved."
STARTPROPERTIES 39
FOUNDRY "FontForge"
FAMILY_NAME "Ostrich Sans"
WEIGHT_NAME "Heavy"
SLANT "R"
SETWIDTH_NAME "Normal"
ADD_STYLE_NAME "Sans"
PIXEL_SIZE 18
POINT_SIZE 170
RESOLUTION_X 75
RESOLUTION_Y 75
SPACING ""
AVERAGE_WIDTH 0
CHARSET_REGISTRY ""
CHARSET_ENCODING ""
FONTNAME_REGISTRY ""
CHARSET_COLLECTIONS "ISO10646-1"
FONT_NAME "OstrichSans-Heavy"
FACE_NAME "Ostrich Sans Heavy"
COPYRIGHT "Copyright (c) 2013 by The League of Moveable Type. All rights reserved."
FONT_VERSION "001.001"
FONT_ASCENT 14
FONT_DESCENT 4
UNDERLINE_POSITION -1
UNDERLINE_THICKNESS 1
X_HEIGHT 11
CAP_HEIGHT 11
RAW_ASCENT 800
RAW_DESCENT 200
NORM_SPACE 4
RELATIVE_WEIGHT 90
RELATIVE_SETWIDTH 50
SUPERSCRIPT_X 0
SUPERSCRIPT_Y 6
SUPERSCRIPT_SIZE 10
SUBSCRIPT_X 0
SUBSCRIPT_Y 1
SUBSCRIPT_SIZE 10
AVG_LOWERCASE_WIDTH 69
AVG_UPPERCASE_WIDTH 69
ENDPROPERTIES
CHARS 310
STARTCHAR CR
ENCODING 13
SWIDTH 210 0
DWIDTH 4 0
BBX 1 1 0 0
BITMAP
00
ENDCHAR
STARTCHAR space
ENCODING 32
SWIDTH 210 0
DWIDTH 4 0
BBX 1 1 0 0
BITMAP
00
ENDCHAR
STARTCHAR exclam
ENCODING 33
SWIDTH 143 0
DWIDTH 3 0
BBX 2 12 0 0
BITMAP
C0
C0
C0
C0
C0
C0
C0
C0
C0
00
C0
C0
ENDCHAR
STARTCHAR quotedbl
ENCODING 34
SWIDTH 212 0
DWIDTH 4 0
BBX 3 3 0 9
BITMAP
E0
E0
E0
ENDCHAR
STARTCHAR numbersign
ENCODING 35
SWIDTH 592 0
DWIDTH 11 0
BBX 9 12 0 0
BITMAP
1B00
1B00
1A00
7F80
FF80
3600
3600
FF80
3C00
6C00
6C00
6C00
ENDCHAR
STARTCHAR dollar
ENCODING 36
SWIDTH 398 0
DWIDTH 7 0
BBX 6 14 0 -1
BITMAP
30
78
FC
CC
CC
E0
70
38
1C
CC
CC
FC
78
30
ENDCHAR
STARTCHAR percent
ENCODING 37
SWIDTH 554 0
DWIDTH 10 0
BBX 10 12 0 0
BITMAP
7300
F200
F600
F600
FC00
0C00
0C00
1B80
1AC0
32C0
33C0
3380
ENDCHAR
STARTCHAR ampersand
ENCODING 38
SWIDTH 479 0
DWIDTH 9 0
BBX 7 12 0 0
BITMAP
78
78
68
78
78
30
7E
DE
CE
CC
FE
7E
ENDCHAR
STARTCHAR quotesingle
ENCODING 39
SWIDTH 131 0
DWIDTH 2 0
BBX 2 3 0 9
BITMAP
C0
C0
C0
ENDCHAR
STARTCHAR parenleft
ENCODING 40
SWIDTH 216 0
DWIDTH 4 0
BBX 3 12 0 0
BITMAP
60
60
C0
C0
C0
C0
C0
C0
C0
C0
60
60
ENDCHAR
STARTCHAR parenright
ENCODING 41
SWIDTH 208 0
DWIDTH 4 0
BBX 3 12 0 0
BITMAP
C0
C0
60
60
60
60
60
60
60
60
C0
C0
ENDCHAR
STARTCHAR asterisk
ENCODING 42
SWIDTH 345 0
DWIDTH 6 0
BBX 5 5 0 7
BITMAP
30
F8
F8
78
58
ENDCHAR
STARTCHAR plus
ENCODING 43
SWIDTH 434 0
DWIDTH 8 0
BBX 7 6 0 3
BITMAP
30
30
FE
FC
30
30
ENDCHAR
STARTCHAR comma
ENCODING 44
SWIDTH 135 0
DWIDTH 2 0
BBX 2 3 0 -1
BITMAP
C0
C0
80
ENDCHAR
STARTCHAR hyphen
ENCODING 45
SWIDTH 349 0
DWIDTH 6 0
BBX 5 2 0 5
BITMAP
F8
F8
ENDCHAR
STARTCHAR period
ENCODING 46
SWIDTH 131 0
DWIDTH 2 0
BBX 2 2 0 0
BITMAP
C0
C0
ENDCHAR
STARTCHAR slash
ENCODING 47
SWIDTH 434 0
DWIDTH 8 0
BBX 6 12 0 0
BITMAP
04
0C
0C
18
18
10
30
30
60
60
40
C0
ENDCHAR
STARTCHAR zero
ENCODING 48
SWIDTH 370 0
DWIDTH 7 0
BBX 5 12 0 0
BITMAP
70
F8
D8
D8
D8
D8
D8
D8
D8
D8
F8
70
ENDCHAR
STARTCHAR one
ENCODING 49
SWIDTH 244 0
DWIDTH 4 0
BBX 3 12 0 0
BITMAP
60
60
E0
20
20
20
20
20
20
20
20
20
ENDCHAR
STARTCHAR two
ENCODING 50
SWIDTH 370 0
DWIDTH 7 0
BBX 5 12 0 0
BITMAP
70
F8
D8
C8
18
18
30
60
C0
C0
F8
F8
ENDCHAR
STARTCHAR three
ENCODING 51
SWIDTH 353 0
DWIDTH 6 0
BBX 5 12 0 0
BITMAP
70
F8
D8
D8
18
78
78
18
D8
D8
F8
70
ENDCHAR
STARTCHAR four
ENCODING 52
SWIDTH 374 0
DWIDTH 7 0
BBX 6 12 0 0
BITMAP
0C
1C
1C
3C
3C
6C
4C
FC
FC
0C
0C
0C
ENDCHAR
STARTCHAR five
ENCODING 53
SWIDTH 360 0
DWIDTH 6 0
BBX 5 12 0 0
BITMAP
F8
C0
C0
C0
F8
F8
D8
18
D8
D8
F8
70
ENDCHAR
STARTCHAR six
ENCODING 54
SWIDTH 362 0
DWIDTH 7 0
BBX 5 12 0 0
BITMAP
78
F8
D8
C8
F0
F8
D8
D8
D8
D8
F8
70
ENDCHAR
STARTCHAR seven
ENCODING 55
SWIDTH 426 0
DWIDTH 8 0
BBX 7 12 0 0
BITMAP
FE
FC
0C
0C
18
18
30
30
30
60
60
C0
ENDCHAR
STARTCHAR eight
ENCODING 56
SWIDTH 382 0
DWIDTH 7 0
BBX 6 12 0 0
BITMAP
78
F8
CC
CC
CC
F8
F8
CC
CC
CC
F8
78
ENDCHAR
STARTCHAR nine
ENCODING 57
SWIDTH 358 0
DWIDTH 6 0
BBX 5 12 0 0
BITMAP
78
F8
D8
D8
D8
D8
F8
78
D8
D8
F8
70
ENDCHAR
STARTCHAR colon
ENCODING 58
SWIDTH 163 0
DWIDTH 3 0
BBX 2 7 0 3
BITMAP
C0
C0
80
00
00
C0
C0
ENDCHAR
STARTCHAR semicolon
ENCODING 59
SWIDTH 147 0
DWIDTH 3 0
BBX 2 7 0 2
BITMAP
C0
C0
00
00
C0
C0
C0
ENDCHAR
STARTCHAR less
ENCODING 60
SWIDTH 292 0
DWIDTH 5 0
BBX 4 6 0 3
BITMAP
30
60
C0
E0
70
30
ENDCHAR
STARTCHAR equal
ENCODING 61
SWIDTH 362 0
DWIDTH 7 0
BBX 5 6 0 3
BITMAP
78
F8
00
00
F8
F8
ENDCHAR
STARTCHAR greater
ENCODING 62
SWIDTH 292 0
DWIDTH 5 0
BBX 4 6 0 3
BITMAP
C0
60
30
30
60
C0
ENDCHAR
STARTCHAR question
ENCODING 63
SWIDTH 353 0
DWIDTH 6 0
BBX 5 12 0 0
BITMAP
70
F8
C8
C8
18
38
30
60
60
00
60
60
ENDCHAR
STARTCHAR at
ENCODING 64
SWIDTH 697 0
DWIDTH 13 0
BBX 11 11 0 0
BITMAP
1F80
39C0
6E40
DF60
DB60
DB60
DFC0
CF80
60C0
3FC0
0F00
ENDCHAR
STARTCHAR A
ENCODING 65
SWIDTH 442 0
DWIDTH 8 0
BBX 7 12 0 0
BITMAP
10
30
38
38
38
68
6C
7C
7C
CC
C6
C6
ENDCHAR
STARTCHAR B
ENCODING 66
SWIDTH 386 0
DWIDTH 7 0
BBX 6 12 0 0
BITMAP
F8
F8
CC
CC
C8
F8
F8
C8
CC
CC
F8
F0
ENDCHAR
STARTCHAR C
ENCODING 67
SWIDTH 394 0
DWIDTH 7 0
BBX 6 12 0 0
BITMAP
78
FC
CC
CC
C0
C0
C0
C0
CC
CC
F8
78
ENDCHAR
STARTCHAR D
ENCODING 68
SWIDTH 398 0
DWIDTH 7 0
BBX 6 12 0 0
BITMAP
F8
F8
CC
CC
CC
CC
CC
CC
CC
CC
F8
F0
ENDCHAR
STARTCHAR E
ENCODING 69
SWIDTH 353 0
DWIDTH 6 0
BBX 5 12 0 0
BITMAP
F8
F8
C0
C0
C0
F8
F8
C0
C0
C0
F8
F8
ENDCHAR
STARTCHAR F
ENCODING 70
SWIDTH 358 0
DWIDTH 6 0
BBX 5 12 0 0
BITMAP
F8
C0
C0
C0
C0
F0
F0
C0
C0
C0
C0
C0
ENDCHAR
STARTCHAR G
ENCODING 71
SWIDTH 402 0
DWIDTH 7 0
BBX 6 12 0 0
BITMAP
78
FC
CC
CC
C0
C0
DC
DC
CC
CC
FC
78
ENDCHAR
STARTCHAR H
ENCODING 72
SWIDTH 394 0
DWIDTH 7 0
BBX 6 12 0 0
BITMAP
CC
CC
CC
CC
CC
FC
FC
CC
CC
CC
CC
CC
ENDCHAR
STARTCHAR I
ENCODING 73
SWIDTH 164 0
DWIDTH 3 0
BBX 2 12 0 0
BITMAP
C0
C0
C0
C0
C0
C0
C0
C0
C0
C0
C0
C0
ENDCHAR
STARTCHAR J
ENCODING 74
SWIDTH 374 0
DWIDTH 7 0
BBX 5 12 0 0
BITMAP
08
08
08
08
08
08
08
08
C8
C8
F8
70
ENDCHAR
STARTCHAR K
ENCODING 75
SWIDTH 388 0
DWIDTH 7 0
BBX 6 12 0 0
BITMAP
CC
CC
D8
F0
F0
E0
F0
F0
D8
D8
CC
CC
ENDCHAR
STARTCHAR L
ENCODING 76
SWIDTH 335 0
DWIDTH 6 0
BBX 5 12 0 0
BITMAP
C0
C0
C0
C0
C0
C0
C0
C0
C0
C0
F8
F8
ENDCHAR
STARTCHAR M
ENCODING 77
SWIDTH 443 0
DWIDTH 8 0
BBX 6 12 0 0
BITMAP
C4
CC
CC
CC
EC
EC
FC
FC
F4
F4
F4
F4
ENDCHAR
STARTCHAR N
ENCODING 78
SWIDTH 410 0
DWIDTH 7 0
BBX 6 12 0 0
BITMAP
CC
CC
EC
EC
EC
FC
FC
DC
DC
DC
CC
CC
ENDCHAR
STARTCHAR O
ENCODING 79
SWIDTH 406 0
DWIDTH 7 0
BBX 6 12 0 0
BITMAP
78
FC
CC
CC
CC
CC
CC
CC
CC
CC
FC
78
ENDCHAR
STARTCHAR P
ENCODING 80
SWIDTH 390 0
DWIDTH 7 0
BBX 6 12 0 0
BITMAP
F8
FC
CC
CC
CC
F8
E0
C0
C0
C0
C0
C0
ENDCHAR
STARTCHAR Q
ENCODING 81
SWIDTH 398 0
DWIDTH 7 0
BBX 6 13 0 -1
BITMAP
78
FC
CC
CC
CC
CC
CC
CC
CC
DC
FC
7C
04
ENDCHAR
STARTCHAR R
ENCODING 82
SWIDTH 398 0
DWIDTH 7 0
BBX 6 13 0 -1
BITMAP
F0
F8
CC
CC
CC
FC
F8
FC
CC
CC
CC
CC
88
ENDCHAR
STARTCHAR S
ENCODING 83
SWIDTH 398 0
DWIDTH 7 0
BBX 6 12 0 0
BITMAP
78
FC
CC
CC
C0
70
38
1C
CC
CC
FC
78
ENDCHAR
STARTCHAR T
ENCODING 84
SWIDTH 401 0
DWIDTH 7 0
BBX 6 12 0 0
BITMAP
FC
FC
30
30
30
30
30
30
30
30
30
30
ENDCHAR
STARTCHAR U
ENCODING 85
SWIDTH 409 0
DWIDTH 7 0
BBX 6 12 0 0
BITMAP
CC
CC
CC
CC
CC
CC
CC
CC
CC
CC
FC
78
ENDCHAR
STARTCHAR V
ENCODING 86
SWIDTH 435 0
DWIDTH 8 0
BBX 7 12 0 0
BITMAP
C6
C6
C4
6C
6C
6C
68
38
38
38
38
10
ENDCHAR
STARTCHAR W
ENCODING 87
SWIDTH 560 0
DWIDTH 10 0
BBX 9 12 0 0
BITMAP
D980
D980
DD00
DF00
5F00
7F00
7F00
7700
7600
7600
3600
2600
ENDCHAR
STARTCHAR X
ENCODING 88
SWIDTH 442 0
DWIDTH 8 0
BBX 7 12 0 0
BITMAP
C6
CC
6C
78
38
38
38
38
6C
6C
CC
C6
ENDCHAR
STARTCHAR Y
ENCODING 89
SWIDTH 406 0
DWIDTH 7 0
BBX 6 12 0 0
BITMAP
CC
CC
D8
78
78
30
30
30
30
30
30
30
ENDCHAR
STARTCHAR Z
ENCODING 90
SWIDTH 411 0
DWIDTH 7 0
BBX 6 12 0 0
BITMAP
FC
FC
18
18
18
30
30
60
60
C0
FC
FC
ENDCHAR
STARTCHAR backslash
ENCODING 92
SWIDTH 430 0
DWIDTH 8 0
BBX 6 12 0 0
BITMAP
C0
60
60
60
30
30
18
18
18
0C
0C
04
ENDCHAR
STARTCHAR asciicircum
ENCODING 94
SWIDTH 237 0
DWIDTH 4 0
BBX 4 3 0 13
BITMAP
60
F0
F0
ENDCHAR
STARTCHAR underscore
ENCODING 95
SWIDTH 511 0
DWIDTH 9 0
BBX 8 2 0 -1
BITMAP
FF
FF
ENDCHAR
STARTCHAR grave
ENCODING 96
SWIDTH 222 0
DWIDTH 4 0
BBX 4 2 0 13
BITMAP
E0
70
ENDCHAR
STARTCHAR a
ENCODING 97
SWIDTH 442 0
DWIDTH 8 0
BBX 7 12 0 0
BITMAP
10
30
38
38
38
68
6C
7C
7C
CC
C6
C6
ENDCHAR
STARTCHAR b
ENCODING 98
SWIDTH 386 0
DWIDTH 7 0
BBX 6 12 0 0
BITMAP
F8
F8
CC
CC
C8
F8
F8
C8
CC
CC
F8
F0
ENDCHAR
STARTCHAR c
ENCODING 99
SWIDTH 394 0
DWIDTH 7 0
BBX 6 12 0 0
BITMAP
78
FC
CC
CC
C0
C0
C0
C0
CC
CC
F8
78
ENDCHAR
STARTCHAR d
ENCODING 100
SWIDTH 398 0
DWIDTH 7 0
BBX 6 12 0 0
BITMAP
F8
F8
CC
CC
CC
CC
CC
CC
CC
CC
F8
F0
ENDCHAR
STARTCHAR e
ENCODING 101
SWIDTH 353 0
DWIDTH 6 0
BBX 5 12 0 0
BITMAP
F8
F8
C0
C0
C0
F8
F8
C0
C0
C0
F8
F8
ENDCHAR
STARTCHAR f
ENCODING 102
SWIDTH 358 0
DWIDTH 6 0
BBX 5 12 0 0
BITMAP
F8
F8
C0
C0
C0
F0
F0
C0
C0
C0
C0
C0
ENDCHAR
STARTCHAR g
ENCODING 103
SWIDTH 402 0
DWIDTH 7 0
BBX 6 12 0 0
BITMAP
78
FC
CC
CC
C0
C0
DC
DC
CC
CC
FC
78
ENDCHAR
STARTCHAR h
ENCODING 104
SWIDTH 394 0
DWIDTH 7 0
BBX 6 12 0 0
BITMAP
CC
CC
CC
CC
CC
FC
FC
CC
CC
CC
CC
CC
ENDCHAR
STARTCHAR i
ENCODING 105
SWIDTH 164 0
DWIDTH 3 0
BBX 2 12 0 0
BITMAP
C0
C0
C0
C0
C0
C0
C0
C0
C0
C0
C0
C0
ENDCHAR
STARTCHAR j
ENCODING 106
SWIDTH 374 0
DWIDTH 7 0
BBX 5 12 0 0
BITMAP
08
08
08
08
08
08
08
08
C8
C8
F8
70
ENDCHAR
STARTCHAR k
ENCODING 107
SWIDTH 410 0
DWIDTH 7 0
BBX 6 12 0 0
BITMAP
CC
CC
D8
F0
F0
E0
F0
F0
D8
D8
CC
CC
ENDCHAR
STARTCHAR l
ENCODING 108
SWIDTH 335 0
DWIDTH 6 0
BBX 5 12 0 0
BITMAP
C0
C0
C0
C0
C0
C0
C0
C0
C0
C0
F8
F8
ENDCHAR
STARTCHAR m
ENCODING 109
SWIDTH 443 0
DWIDTH 8 0
BBX 6 12 0 0
BITMAP
C4
CC
CC
CC
EC
EC
FC
FC
F4
F4
F4
F4
ENDCHAR
STARTCHAR n
ENCODING 110
SWIDTH 410 0
DWIDTH 7 0
BBX 6 12 0 0
BITMAP
CC
CC
EC
EC
EC
FC
FC
DC
DC
DC
CC
CC
ENDCHAR
STARTCHAR o
ENCODING 111
SWIDTH 406 0
DWIDTH 7 0
BBX 6 12 0 0
BITMAP
78
FC
CC
CC
CC
CC
CC
CC
CC
CC
FC
78
ENDCHAR
STARTCHAR p
ENCODING 112
SWIDTH 390 0
DWIDTH 7 0
BBX 6 12 0 0
BITMAP
F0
F8
CC
CC
CC
F8
F8
C0
C0
C0
C0
C0
ENDCHAR
STARTCHAR q
ENCODING 113
SWIDTH 398 0
DWIDTH 7 0
BBX 6 12 0 0
BITMAP
78
CC
CC
CC
CC
CC
CC
CC
CC
DC
FC
3C
ENDCHAR
STARTCHAR r
ENCODING 114
SWIDTH 398 0
DWIDTH 7 0
BBX 6 12 0 0
BITMAP
F8
FC
CC
CC
CC
FC
F8
CC
CC
CC
CC
CC
ENDCHAR
STARTCHAR s
ENCODING 115
SWIDTH 398 0
DWIDTH 7 0
BBX 6 12 0 0
BITMAP
78
FC
CC
CC
E0
70
38
1C
CC
CC
FC
78
ENDCHAR
STARTCHAR t
ENCODING 116
SWIDTH 401 0
DWIDTH 7 0
BBX 6 12 0 0
BITMAP
FC
FC
30
30
30
30
30
30
30
30
30
30
ENDCHAR
STARTCHAR u
ENCODING 117
SWIDTH 409 0
DWIDTH 7 0
BBX 6 12 0 0
BITMAP
CC
CC
CC
CC
CC
CC
CC
CC
CC
CC
F8
78
ENDCHAR
STARTCHAR v
ENCODING 118
SWIDTH 435 0
DWIDTH 8 0
BBX 7 12 0 0
BITMAP
C6
C6
C4
6C
6C
6C
68
38
38
38
38
10
ENDCHAR
STARTCHAR w
ENCODING 119
SWIDTH 555 0
DWIDTH 10 0
BBX 9 12 0 0
BITMAP
D980
D980
DD00
DF00
5F00
7F00
7F00
7700
7600
7600
3600
2600
ENDCHAR
STARTCHAR x
ENCODING 120
SWIDTH 442 0
DWIDTH 8 0
BBX 7 12 0 0
BITMAP
C6
CC
6C
78
38
38
38
38
6C
6C
CC
C6
ENDCHAR
STARTCHAR y
ENCODING 121
SWIDTH 406 0
DWIDTH 7 0
BBX 6 12 0 0
BITMAP
CC
CC
D8
78
78
30
30
30
30
30
30
30
ENDCHAR
STARTCHAR z
ENCODING 122
SWIDTH 411 0
DWIDTH 7 0
BBX 6 12 0 0
BITMAP
FC
FC
18
18
18
30
30
60
60
C0
FC
FC
ENDCHAR
STARTCHAR bar
ENCODING 124
SWIDTH 139 0
DWIDTH 3 0
BBX 2 12 0 0
BITMAP
C0
C0
C0
C0
C0
C0
C0
C0
C0
C0
C0
C0
ENDCHAR
STARTCHAR asciitilde
ENCODING 126
SWIDTH 322 0
DWIDTH 6 0
BBX 6 3 0 11
BITMAP
60
FC
38
ENDCHAR
STARTCHAR exclamdown
ENCODING 161
SWIDTH 143 0
DWIDTH 3 0
BBX 2 12 0 0
BITMAP
C0
C0
00
C0
C0
C0
C0
C0
C0
C0
C0
C0
ENDCHAR
STARTCHAR sterling
ENCODING 163
SWIDTH 373 0
DWIDTH 7 0
BBX 6 12 0 0
BITMAP
38
7C
68
60
60
F8
F8
60
60
40
FC
FC
ENDCHAR
STARTCHAR dieresis
ENCODING 168
SWIDTH 229 0
DWIDTH 4 0
BBX 4 2 0 13
BITMAP
F0
F0
ENDCHAR
STARTCHAR copyright
ENCODING 169
SWIDTH 709 0
DWIDTH 13 0
BBX 11 13 0 0
BITMAP
0E00
1F80
31C0
66C0
6F60
DB60
DB20
D920
DB60
6F60
6EC0
3FC0
1F00
ENDCHAR
STARTCHAR registered
ENCODING 174
SWIDTH 723 0
DWIDTH 13 0
BBX 11 13 0 0
BITMAP
0E00
1F80
31C0
60E0
6F60
CF60
CF20
CF20
CF60
6F60
6BC0
3FC0
1F00
ENDCHAR
STARTCHAR macron
ENCODING 175
SWIDTH 231 0
DWIDTH 4 0
BBX 4 2 0 13
BITMAP
F0
F0
ENDCHAR
STARTCHAR degree
ENCODING 176
SWIDTH 142 0
DWIDTH 3 0
BBX 2 3 0 11
BITMAP
C0
C0
C0
ENDCHAR
STARTCHAR acute
ENCODING 180
SWIDTH 247 0
DWIDTH 4 0
BBX 4 2 0 13
BITMAP
70
E0
ENDCHAR
STARTCHAR periodcentered
ENCODING 183
SWIDTH 83 0
DWIDTH 2 0
BBX 2 2 0 6
BITMAP
C0
C0
ENDCHAR
STARTCHAR cedilla
ENCODING 184
SWIDTH 201 0
DWIDTH 4 0
BBX 4 4 0 -4
BITMAP
40
70
B0
E0
ENDCHAR
STARTCHAR ordmasculine
ENCODING 186
SWIDTH 140 0
DWIDTH 3 0
BBX 2 3 0 11
BITMAP
C0
C0
C0
ENDCHAR
STARTCHAR questiondown
ENCODING 191
SWIDTH 353 0
DWIDTH 6 0
BBX 5 12 0 0
BITMAP
30
30
00
30
30
60
E0
C0
98
98
F8
F0
ENDCHAR
STARTCHAR Agrave
ENCODING 192
SWIDTH 442 0
DWIDTH 8 0
BBX 7 16 0 0
BITMAP
20
38
1C
00
10
30
38
38
38
68
6C
7C
7C
CC
C6
C6
ENDCHAR
STARTCHAR Aacute
ENCODING 193
SWIDTH 442 0
DWIDTH 8 0
BBX 7 15 0 0
BITMAP
38
70
00
10
30
38
38
38
68
6C
7C
7C
CC
C6
C6
ENDCHAR
STARTCHAR Acircumflex
ENCODING 194
SWIDTH 442 0
DWIDTH 8 0
BBX 7 16 0 0
BITMAP
10
38
6C
00
10
30
38
38
38
68
6C
7C
7C
CC
C6
C6
ENDCHAR
STARTCHAR Atilde
ENCODING 195
SWIDTH 442 0
DWIDTH 8 0
BBX 7 15 0 0
BITMAP
7C
7C
00
10
30
38
38
38
68
6C
7C
7C
CC
C6
C6
ENDCHAR
STARTCHAR Adieresis
ENCODING 196
SWIDTH 442 0
DWIDTH 8 0
BBX 7 15 0 0
BITMAP
68
6C
00
10
30
38
38
38
68
6C
7C
7C
CC
C6
C6
ENDCHAR
STARTCHAR Aring
ENCODING 197
SWIDTH 442 0
DWIDTH 8 0
BBX 7 16 0 0
BITMAP
10
28
38
00
10
30
38
38
38
68
6C
7C
7C
CC
C6
C6
ENDCHAR
STARTCHAR AE
ENCODING 198
SWIDTH 665 0
DWIDTH 12 0
BBX 10 12 0 0
BITMAP
07C0
0FC0
0E00
0E00
1E00
1FC0
37C0
3E00
7E00
6600
C7C0
C7C0
ENDCHAR
STARTCHAR Ccedilla
ENCODING 199
SWIDTH 394 0
DWIDTH 7 0
BBX 6 16 0 -4
BITMAP
78
FC
CC
CC
C0
C0
C0
C0
CC
CC
F8
78
30
38
38
38
ENDCHAR
STARTCHAR Egrave
ENCODING 200
SWIDTH 353 0
DWIDTH 6 0
BBX 5 15 0 0
BITMAP
70
38
00
F8
F8
C0
C0
C0
F0
F8
C0
C0
C0
C0
F8
ENDCHAR
STARTCHAR Eacute
ENCODING 201
SWIDTH 353 0
DWIDTH 6 0
BBX 5 15 0 0
BITMAP
38
60
00
F8
F8
C0
C0
C0
F8
F8
C0
C0
C0
F8
F8
ENDCHAR
STARTCHAR Ecircumflex
ENCODING 202
SWIDTH 353 0
DWIDTH 6 0
BBX 5 16 0 0
BITMAP
20
70
D8
00
F8
F8
C0
C0
C0
F8
F8
C0
C0
C0
F8
F8
ENDCHAR
STARTCHAR Edieresis
ENCODING 203
SWIDTH 353 0
DWIDTH 6 0
BBX 5 15 0 0
BITMAP
58
58
00
F8
F8
C0
C0
C0
F8
F8
C0
C0
C0
F8
F8
ENDCHAR
STARTCHAR Igrave
ENCODING 204
SWIDTH 159 0
DWIDTH 3 0
BBX 4 15 -1 0
BITMAP
E0
30
00
60
60
60
60
60
60
60
60
60
60
60
60
ENDCHAR
STARTCHAR Iacute
ENCODING 205
SWIDTH 159 0
DWIDTH 3 0
BBX 4 16 -1 0
BITMAP
10
70
C0
00
60
60
60
60
60
60
60
60
60
60
60
60
ENDCHAR
STARTCHAR Icircumflex
ENCODING 206
SWIDTH 159 0
DWIDTH 3 0
BBX 4 16 -1 0
BITMAP
40
E0
F0
00
60
60
60
60
60
60
60
60
60
60
60
60
ENDCHAR
STARTCHAR Idieresis
ENCODING 207
SWIDTH 159 0
DWIDTH 3 0
BBX 4 15 -1 0
BITMAP
F0
F0
00
60
60
60
60
60
60
60
60
60
60
60
60
ENDCHAR
STARTCHAR Eth
ENCODING 208
SWIDTH 398 0
DWIDTH 7 0
BBX 8 12 -2 0
BITMAP
3E
3E
33
33
33
FF
7F
33
33
33
3E
3C
ENDCHAR
STARTCHAR Ntilde
ENCODING 209
SWIDTH 410 0
DWIDTH 7 0
BBX 6 15 0 0
BITMAP
7C
FC
00
CC
CC
EC
EC
EC
FC
FC
DC
DC
DC
CC
CC
ENDCHAR
STARTCHAR Ograve
ENCODING 210
SWIDTH 406 0
DWIDTH 7 0
BBX 6 15 0 0
BITMAP
70
18
00
78
FC
CC
CC
CC
CC
CC
CC
CC
CC
FC
78
ENDCHAR
STARTCHAR Oacute
ENCODING 211
SWIDTH 406 0
DWIDTH 7 0
BBX 6 15 0 0
BITMAP
38
60
00
78
FC
CC
CC
CC
CC
CC
CC
CC
CC
FC
78
ENDCHAR
STARTCHAR Ocircumflex
ENCODING 212
SWIDTH 406 0
DWIDTH 7 0
BBX 6 15 0 0
BITMAP
30
78
00
78
FC
CC
CC
CC
CC
CC
CC
CC
CC
FC
78
ENDCHAR
STARTCHAR Otilde
ENCODING 213
SWIDTH 406 0
DWIDTH 7 0
BBX 6 15 0 0
BITMAP
7C
FC
00
78
FC
CC
CC
CC
CC
CC
CC
CC
CC
FC
78
ENDCHAR
STARTCHAR Odieresis
ENCODING 214
SWIDTH 406 0
DWIDTH 7 0
BBX 6 15 0 0
BITMAP
78
78
00
78
FC
CC
CC
CC
CC
CC
CC
CC
CC
FC
78
ENDCHAR
STARTCHAR multiply
ENCODING 215
SWIDTH 294 0
DWIDTH 5 0
BBX 4 4 0 4
BITMAP
F0
70
F0
D0
ENDCHAR
STARTCHAR Oslash
ENCODING 216
SWIDTH 406 0
DWIDTH 7 0
BBX 6 12 0 0
BITMAP
7C
FC
CC
DC
DC
FC
FC
EC
EC
EC
FC
F8
ENDCHAR
STARTCHAR Ugrave
ENCODING 217
SWIDTH 409 0
DWIDTH 7 0
BBX 6 15 0 0
BITMAP
70
38
00
CC
CC
CC
CC
CC
CC
CC
CC
CC
CC
FC
78
ENDCHAR
STARTCHAR Uacute
ENCODING 218
SWIDTH 409 0
DWIDTH 7 0
BBX 6 15 0 0
BITMAP
38
70
00
CC
CC
CC
CC
CC
CC
CC
CC
CC
CC
FC
78
ENDCHAR
STARTCHAR Ucircumflex
ENCODING 219
SWIDTH 409 0
DWIDTH 7 0
BBX 6 15 0 0
BITMAP
70
78
00
CC
CC
CC
CC
CC
CC
CC
CC
CC
CC
FC
78
ENDCHAR
STARTCHAR Udieresis
ENCODING 220
SWIDTH 409 0
DWIDTH 7 0
BBX 6 15 0 0
BITMAP
78
78
00
CC
CC
CC
CC
CC
CC
CC
CC
CC
CC
FC
78
ENDCHAR
STARTCHAR Yacute
ENCODING 221
SWIDTH 406 0
DWIDTH 7 0
BBX 6 16 0 0
BITMAP
08
38
60
00
CC
CC
D8
78
78
30
30
30
30
30
30
30
ENDCHAR
STARTCHAR Thorn
ENCODING 222
SWIDTH 386 0
DWIDTH 7 0
BBX 7 12 0 0
BITMAP
C0
C0
C0
F8
FC
C6
C6
FC
F8
C0
C0
C0
ENDCHAR
STARTCHAR germandbls
ENCODING 223
SWIDTH 376 0
DWIDTH 7 0
BBX 6 12 0 0
BITMAP
70
F8
D8
D8
D8
F8
F8
CC
CC
CC
F8
F8
ENDCHAR
STARTCHAR agrave
ENCODING 224
SWIDTH 442 0
DWIDTH 8 0
BBX 7 16 0 0
BITMAP
20
38
1C
00
10
30
38
38
38
68
6C
7C
7C
CC
C6
C6
ENDCHAR
STARTCHAR aacute
ENCODING 225
SWIDTH 442 0
DWIDTH 8 0
BBX 7 15 0 0
BITMAP
38
70
00
10
30
38
38
38
68
6C
7C
7C
CC
C6
C6
ENDCHAR
STARTCHAR acircumflex
ENCODING 226
SWIDTH 442 0
DWIDTH 8 0
BBX 7 16 0 0
BITMAP
10
38
6C
00
10
30
38
38
38
68
6C
7C
7C
CC
C6
C6
ENDCHAR
STARTCHAR atilde
ENCODING 227
SWIDTH 442 0
DWIDTH 8 0
BBX 7 15 0 0
BITMAP
7C
7C
00
10
30
38
38
38
68
6C
7C
7C
CC
C6
C6
ENDCHAR
STARTCHAR adieresis
ENCODING 228
SWIDTH 442 0
DWIDTH 8 0
BBX 7 15 0 0
BITMAP
68
6C
00
10
30
38
38
38
68
6C
7C
7C
CC
C6
C6
ENDCHAR
STARTCHAR aring
ENCODING 229
SWIDTH 442 0
DWIDTH 8 0
BBX 7 16 0 0
BITMAP
10
28
38
00
10
30
38
38
38
68
6C
7C
7C
CC
C6
C6
ENDCHAR
STARTCHAR ae
ENCODING 230
SWIDTH 665 0
DWIDTH 12 0
BBX 10 12 0 0
BITMAP
03C0
07C0
0E00
0E00
1E00
1FC0
37C0
3E00
7E00
6600
47C0
C7C0
ENDCHAR
STARTCHAR ccedilla
ENCODING 231
SWIDTH 394 0
DWIDTH 7 0
BBX 6 16 0 -4
BITMAP
78
FC
CC
CC
C0
C0
C0
C0
CC
CC
F8
78
30
38
38
38
ENDCHAR
STARTCHAR egrave
ENCODING 232
SWIDTH 353 0
DWIDTH 6 0
BBX 5 15 0 0
BITMAP
70
38
00
F8
F8
C0
C0
C0
F0
F8
C0
C0
C0
C0
F8
ENDCHAR
STARTCHAR eacute
ENCODING 233
SWIDTH 353 0
DWIDTH 6 0
BBX 5 15 0 0
BITMAP
38
60
00
F8
F8
C0
C0
C0
F8
F8
C0
C0
C0
F8
F8
ENDCHAR
STARTCHAR ecircumflex
ENCODING 234
SWIDTH 353 0
DWIDTH 6 0
BBX 5 16 0 0
BITMAP
20
70
D8
00
F8
F8
C0
C0
C0
F8
F8
C0
C0
C0
F8
F8
ENDCHAR
STARTCHAR edieresis
ENCODING 235
SWIDTH 353 0
DWIDTH 6 0
BBX 5 15 0 0
BITMAP
58
58
00
F8
F8
C0
C0
C0
F8
F8
C0
C0
C0
F8
F8
ENDCHAR
STARTCHAR igrave
ENCODING 236
SWIDTH 159 0
DWIDTH 3 0
BBX 4 15 -1 0
BITMAP
E0
30
00
60
60
60
60
60
60
60
60
60
60
60
60
ENDCHAR
STARTCHAR iacute
ENCODING 237
SWIDTH 159 0
DWIDTH 3 0
BBX 4 16 -1 0
BITMAP
10
70
C0
00
60
60
60
60
60
60
60
60
60
60
60
60
ENDCHAR
STARTCHAR icircumflex
ENCODING 238
SWIDTH 159 0
DWIDTH 3 0
BBX 4 16 -1 0
BITMAP
40
E0
F0
00
60
60
60
60
60
60
60
60
60
60
60
60
ENDCHAR
STARTCHAR idieresis
ENCODING 239
SWIDTH 159 0
DWIDTH 3 0
BBX 4 15 -1 0
BITMAP
F0
F0
00
60
60
60
60
60
60
60
60
60
60
60
60
ENDCHAR
STARTCHAR eth
ENCODING 240
SWIDTH 398 0
DWIDTH 7 0
BBX 6 12 -1 0
BITMAP
78
7C
6C
64
64
F4
FC
64
64
64
7C
78
ENDCHAR
STARTCHAR ntilde
ENCODING 241
SWIDTH 410 0
DWIDTH 7 0
BBX 6 15 0 0
BITMAP
7C
FC
00
CC
CC
EC
EC
EC
FC
FC
DC
DC
DC
CC
CC
ENDCHAR
STARTCHAR ograve
ENCODING 242
SWIDTH 406 0
DWIDTH 7 0
BBX 6 15 0 0
BITMAP
70
18
00
78
FC
CC
CC
CC
CC
CC
CC
CC
CC
FC
78
ENDCHAR
STARTCHAR oacute
ENCODING 243
SWIDTH 406 0
DWIDTH 7 0
BBX 6 16 0 0
BITMAP
08
38
60
00
78
FC
CC
CC
CC
CC
CC
CC
CC
CC
FC
78
ENDCHAR
STARTCHAR ocircumflex
ENCODING 244
SWIDTH 406 0
DWIDTH 7 0
BBX 6 15 0 0
BITMAP
30
78
00
78
FC
CC
CC
CC
CC
CC
CC
CC
CC
FC
78
ENDCHAR
STARTCHAR otilde
ENCODING 245
SWIDTH 406 0
DWIDTH 7 0
BBX 6 15 0 0
BITMAP
7C
FC
00
78
FC
CC
CC
CC
CC
CC
CC
CC
CC
FC
78
ENDCHAR
STARTCHAR odieresis
ENCODING 246
SWIDTH 406 0
DWIDTH 7 0
BBX 6 15 0 0
BITMAP
78
78
00
78
FC
CC
CC
CC
CC
CC
CC
CC
CC
FC
78
ENDCHAR
STARTCHAR divide
ENCODING 247
SWIDTH 163 0
DWIDTH 3 0
BBX 2 7 0 3
BITMAP
C0
C0
80
00
00
C0
C0
ENDCHAR
STARTCHAR oslash
ENCODING 248
SWIDTH 406 0
DWIDTH 7 0
BBX 6 12 0 0
BITMAP
7C
FC
CC
DC
DC
FC
FC
EC
EC
EC
FC
F8
ENDCHAR
STARTCHAR ugrave
ENCODING 249
SWIDTH 409 0
DWIDTH 7 0
BBX 6 15 0 0
BITMAP
70
38
00
CC
CC
CC
CC
CC
CC
CC
CC
CC
CC
FC
78
ENDCHAR
STARTCHAR uacute
ENCODING 250
SWIDTH 409 0
DWIDTH 7 0
BBX 6 15 0 0
BITMAP
38
70
00
CC
CC
CC
CC
CC
CC
CC
CC
CC
CC
FC
78
ENDCHAR
STARTCHAR ucircumflex
ENCODING 251
SWIDTH 409 0
DWIDTH 7 0
BBX 6 15 0 0
BITMAP
70
78
00
CC
CC
CC
CC
CC
CC
CC
CC
CC
CC
FC
78
ENDCHAR
STARTCHAR udieresis
ENCODING 252
SWIDTH 409 0
DWIDTH 7 0
BBX 6 15 0 0
BITMAP
78
78
00
CC
CC
CC
CC
CC
CC
CC
CC
CC
CC
FC
78
ENDCHAR
STARTCHAR yacute
ENCODING 253
SWIDTH 406 0
DWIDTH 7 0
BBX 6 16 0 0
BITMAP
08
38
60
00
CC
CC
D8
78
78
30
30
30
30
30
30
30
ENDCHAR
STARTCHAR thorn
ENCODING 254
SWIDTH 386 0
DWIDTH 7 0
BBX 6 12 0 0
BITMAP
80
C0
C0
F8
FC
CC
C4
FC
F8
C0
C0
C0
ENDCHAR
STARTCHAR ydieresis
ENCODING 255
SWIDTH 406 0
DWIDTH 7 0
BBX 6 15 0 0
BITMAP
78
78
00
CC
CC
D8
78
78
30
30
30
30
30
30
30
ENDCHAR
STARTCHAR Amacron
ENCODING 256
SWIDTH 442 0
DWIDTH 8 0
BBX 7 15 0 0
BITMAP
38
78
00
10
30
38
38
38
68
6C
7C
7C
CC
C6
C6
ENDCHAR
STARTCHAR amacron
ENCODING 257
SWIDTH 442 0
DWIDTH 8 0
BBX 7 15 0 0
BITMAP
38
78
00
10
30
38
38
38
68
6C
7C
7C
CC
C6
C6
ENDCHAR
STARTCHAR Cacute
ENCODING 262
SWIDTH 394 0
DWIDTH 7 0
BBX 6 16 0 0
BITMAP
08
38
70
00
78
FC
CC
CC
C0
C0
C0
C0
CC
CC
F8
78
ENDCHAR
STARTCHAR cacute
ENCODING 263
SWIDTH 394 0
DWIDTH 7 0
BBX 6 16 0 0
BITMAP
08
38
70
00
78
FC
CC
CC
C0
C0
C0
C0
CC
CC
F8
78
ENDCHAR
STARTCHAR Ccircumflex
ENCODING 264
SWIDTH 394 0
DWIDTH 7 0
BBX 6 16 0 0
BITMAP
20
70
78
00
78
FC
CC
CC
C0
C0
C0
C0
CC
CC
F8
78
ENDCHAR
STARTCHAR ccircumflex
ENCODING 265
SWIDTH 394 0
DWIDTH 7 0
BBX 6 16 0 0
BITMAP
20
70
78
00
78
FC
CC
CC
C0
C0
C0
C0
CC
CC
F8
78
ENDCHAR
STARTCHAR Cdotaccent
ENCODING 266
SWIDTH 394 0
DWIDTH 7 0
BBX 6 15 0 0
BITMAP
30
30
00
78
FC
CC
CC
C0
C0
C0
C0
CC
CC
F8
78
ENDCHAR
STARTCHAR cdotaccent
ENCODING 267
SWIDTH 394 0
DWIDTH 7 0
BBX 6 15 0 0
BITMAP
30
30
00
78
FC
CC
CC
C0
C0
C0
C0
CC
CC
F8
78
ENDCHAR
STARTCHAR Ccaron
ENCODING 268
SWIDTH 394 0
DWIDTH 7 0
BBX 6 16 0 0
BITMAP
48
78
30
00
78
FC
CC
CC
C0
C0
C0
C0
CC
CC
F8
78
ENDCHAR
STARTCHAR ccaron
ENCODING 269
SWIDTH 394 0
DWIDTH 7 0
BBX 6 16 0 0
BITMAP
48
78
30
00
78
FC
CC
CC
C0
C0
C0
C0
CC
CC
F8
78
ENDCHAR
STARTCHAR Dcaron
ENCODING 270
SWIDTH 398 0
DWIDTH 7 0
BBX 6 16 0 0
BITMAP
50
78
30
00
F8
F8
CC
CC
CC
CC
CC
CC
CC
CC
F8
F0
ENDCHAR
STARTCHAR dcaron
ENCODING 271
SWIDTH 398 0
DWIDTH 7 0
BBX 6 16 0 0
BITMAP
50
78
30
00
F8
F8
CC
CC
CC
CC
CC
CC
CC
CC
F8
F0
ENDCHAR
STARTCHAR Dcroat
ENCODING 272
SWIDTH 418 0
DWIDTH 8 0
BBX 7 12 0 0
BITMAP
7C
7C
66
66
66
F6
F6
66
66
66
7C
78
ENDCHAR
STARTCHAR dcroat
ENCODING 273
SWIDTH 418 0
DWIDTH 8 0
BBX 7 12 0 0
BITMAP
78
7C
6C
66
66
F6
F6
66
66
64
7C
78
ENDCHAR
STARTCHAR Emacron
ENCODING 274
SWIDTH 353 0
DWIDTH 6 0
BBX 5 15 0 0
BITMAP
70
78
00
F8
F8
C0
C0
C0
F8
F8
C0
C0
C0
F8
F8
ENDCHAR
STARTCHAR emacron
ENCODING 275
SWIDTH 353 0
DWIDTH 6 0
BBX 5 15 0 0
BITMAP
70
78
00
F8
F8
C0
C0
C0
F8
F8
C0
C0
C0
F8
F8
ENDCHAR
STARTCHAR Ebreve
ENCODING 276
SWIDTH 353 0
DWIDTH 6 0
BBX 5 15 0 0
BITMAP
F8
70
00
F8
F8
C0
C0
C0
F8
F8
C0
C0
C0
F8
F8
ENDCHAR
STARTCHAR ebreve
ENCODING 277
SWIDTH 353 0
DWIDTH 6 0
BBX 5 15 0 0
BITMAP
F8
70
00
F8
F8
C0
C0
C0
F8
F8
C0
C0
C0
F8
F8
ENDCHAR
STARTCHAR Edotaccent
ENCODING 278
SWIDTH 353 0
DWIDTH 6 0
BBX 5 15 0 0
BITMAP
30
30
00
F8
F8
C0
C0
C0
F8
F8
C0
C0
C0
F8
F8
ENDCHAR
STARTCHAR edotaccent
ENCODING 279
SWIDTH 353 0
DWIDTH 6 0
BBX 5 15 0 0
BITMAP
30
30
00
F8
F8
C0
C0
C0
F8
F8
C0
C0
C0
F8
F8
ENDCHAR
STARTCHAR Ecaron
ENCODING 282
SWIDTH 353 0
DWIDTH 6 0
BBX 5 16 0 0
BITMAP
50
78
30
00
F8
F8
C0
C0
C0
F8
F8
C0
C0
C0
F8
F8
ENDCHAR
STARTCHAR ecaron
ENCODING 283
SWIDTH 353 0
DWIDTH 6 0
BBX 5 16 0 0
BITMAP
50
78
30
00
F8
F8
C0
C0
C0
F8
F8
C0
C0
C0
F8
F8
ENDCHAR
STARTCHAR Gcircumflex
ENCODING 284
SWIDTH 402 0
DWIDTH 7 0
BBX 6 16 0 0
BITMAP
20
70
78
00
78
FC
CC
CC
C0
C0
DC
DC
CC
CC
FC
78
ENDCHAR
STARTCHAR gcircumflex
ENCODING 285
SWIDTH 402 0
DWIDTH 7 0
BBX 6 16 0 0
BITMAP
20
70
78
00
78
FC
CC
CC
C0
C0
DC
DC
CC
CC
FC
78
ENDCHAR
STARTCHAR Gbreve
ENCODING 286
SWIDTH 402 0
DWIDTH 7 0
BBX 6 15 0 0
BITMAP
78
78
00
78
FC
CC
CC
C0
C0
DC
DC
CC
CC
FC
78
ENDCHAR
STARTCHAR gbreve
ENCODING 287
SWIDTH 402 0
DWIDTH 7 0
BBX 6 15 0 0
BITMAP
78
78
00
78
FC
CC
CC
C0
C0
DC
DC
CC
CC
FC
78
ENDCHAR
STARTCHAR Gdotaccent
ENCODING 288
SWIDTH 402 0
DWIDTH 7 0
BBX 6 15 0 0
BITMAP
30
30
00
78
FC
CC
CC
C0
C0
DC
DC
CC
CC
FC
78
ENDCHAR
STARTCHAR gdotaccent
ENCODING 289
SWIDTH 402 0
DWIDTH 7 0
BBX 6 15 0 0
BITMAP
30
30
00
78
FC
CC
CC
C0
C0
DC
DC
CC
CC
FC
78
ENDCHAR
STARTCHAR Gcommaaccent
ENCODING 290
SWIDTH 402 0
DWIDTH 7 0
BBX 6 16 0 -3
BITMAP
30
78
CC
CC
CC
C0
D8
DC
CC
CC
CC
78
30
30
30
30
ENDCHAR
STARTCHAR gcommaaccent
ENCODING 291
SWIDTH 402 0
DWIDTH 7 0
BBX 6 16 0 -3
BITMAP
30
78
CC
CC
CC
C0
D8
DC
CC
CC
CC
78
30
30
30
30
ENDCHAR
STARTCHAR Hcircumflex
ENCODING 292
SWIDTH 394 0
DWIDTH 7 0
BBX 6 16 0 0
BITMAP
20
70
78
00
CC
CC
CC
CC
CC
FC
FC
CC
CC
CC
CC
CC
ENDCHAR
STARTCHAR hcircumflex
ENCODING 293
SWIDTH 394 0
DWIDTH 7 0
BBX 6 16 0 0
BITMAP
20
70
78
00
CC
CC
CC
CC
CC
FC
FC
CC
CC
CC
CC
CC
ENDCHAR
STARTCHAR Itilde
ENCODING 296
SWIDTH 159 0
DWIDTH 3 0
BBX 6 15 -2 0
BITMAP
EC
F8
00
30
30
30
30
30
30
30
30
30
30
30
30
ENDCHAR
STARTCHAR itilde
ENCODING 297
SWIDTH 159 0
DWIDTH 3 0
BBX 6 15 -2 0
BITMAP
EC
F8
00
30
30
30
30
30
30
30
30
30
30
30
30
ENDCHAR
STARTCHAR Imacron
ENCODING 298
SWIDTH 159 0
DWIDTH 3 0
BBX 4 15 -1 0
BITMAP
F0
F0
00
60
60
60
60
60
60
60
60
60
60
60
60
ENDCHAR
STARTCHAR imacron
ENCODING 299
SWIDTH 159 0
DWIDTH 3 0
BBX 4 15 -1 0
BITMAP
F0
F0
00
60
60
60
60
60
60
60
60
60
60
60
60
ENDCHAR
STARTCHAR Ibreve
ENCODING 300
SWIDTH 159 0
DWIDTH 3 0
BBX 4 15 -1 0
BITMAP
F0
E0
00
60
60
60
60
60
60
60
60
60
60
60
60
ENDCHAR
STARTCHAR ibreve
ENCODING 301
SWIDTH 159 0
DWIDTH 3 0
BBX 4 15 -1 0
BITMAP
F0
E0
00
60
60
60
60
60
60
60
60
60
60
60
60
ENDCHAR
STARTCHAR Idotaccent
ENCODING 304
SWIDTH 159 0
DWIDTH 3 0
BBX 2 15 0 0
BITMAP
C0
C0
00
C0
C0
C0
C0
C0
C0
C0
C0
C0
C0
C0
C0
ENDCHAR
STARTCHAR dotlessi
ENCODING 305
SWIDTH 159 0
DWIDTH 3 0
BBX 2 12 0 0
BITMAP
C0
C0
C0
C0
C0
C0
C0
C0
C0
C0
C0
C0
ENDCHAR
STARTCHAR Jcircumflex
ENCODING 308
SWIDTH 374 0
DWIDTH 7 0
BBX 7 16 0 0
BITMAP
08
1C
1E
00
08
08
08
08
08
08
08
08
C8
C8
F8
70
ENDCHAR
STARTCHAR jcircumflex
ENCODING 309
SWIDTH 374 0
DWIDTH 7 0
BBX 7 16 0 0
BITMAP
08
1C
1E
00
08
08
08
08
08
08
08
08
C8
C8
F8
70
ENDCHAR
STARTCHAR Kcommaaccent
ENCODING 310
SWIDTH 388 0
DWIDTH 7 0
BBX 6 15 0 -3
BITMAP
CC
CC
D8
F0
F0
E0
F0
F0
D8
D8
CC
CC
00
30
30
ENDCHAR
STARTCHAR kcommaaccent
ENCODING 311
SWIDTH 388 0
DWIDTH 7 0
BBX 6 15 0 -3
BITMAP
CC
CC
D8
F0
F0
E0
F0
F0
D8
D8
CC
CC
00
30
30
ENDCHAR
STARTCHAR Lacute
ENCODING 313
SWIDTH 335 0
DWIDTH 6 0
BBX 6 15 -1 0
BITMAP
70
C0
00
60
60
60
60
60
60
60
60
60
60
7C
7C
ENDCHAR
STARTCHAR lacute
ENCODING 314
SWIDTH 335 0
DWIDTH 6 0
BBX 6 15 -1 0
BITMAP
70
C0
00
60
60
60
60
60
60
60
60
60
60
7C
7C
ENDCHAR
STARTCHAR Lcommaaccent
ENCODING 315
SWIDTH 335 0
DWIDTH 6 0
BBX 5 15 0 -3
BITMAP
C0
C0
C0
C0
C0
C0
C0
C0
C0
C0
F8
F8
00
20
20
ENDCHAR
STARTCHAR lcommaaccent
ENCODING 316
SWIDTH 335 0
DWIDTH 6 0
BBX 5 15 0 -3
BITMAP
C0
C0
C0
C0
C0
C0
C0
C0
C0
C0
F8
F8
00
20
20
ENDCHAR
STARTCHAR Lcaron
ENCODING 317
SWIDTH 335 0
DWIDTH 6 0
BBX 6 13 -1 1
BITMAP
F0
60
60
60
60
60
60
60
60
60
60
7C
7C
ENDCHAR
STARTCHAR Lslash
ENCODING 321
SWIDTH 414 0
DWIDTH 7 0
BBX 7 12 -1 0
BITMAP
30
30
30
30
3C
38
30
70
F0
30
3E
3E
ENDCHAR
STARTCHAR lslash
ENCODING 322
SWIDTH 414 0
DWIDTH 7 0
BBX 7 12 -1 0
BITMAP
20
30
30
30
3C
38
30
70
F0
B0
3E
3E
ENDCHAR
STARTCHAR Nacute
ENCODING 323
SWIDTH 410 0
DWIDTH 7 0
BBX 6 15 0 0
BITMAP
38
60
00
CC
CC
EC
EC
EC
FC
FC
DC
DC
DC
CC
CC
ENDCHAR
STARTCHAR nacute
ENCODING 324
SWIDTH 410 0
DWIDTH 7 0
BBX 6 15 0 0
BITMAP
38
60
00
CC
CC
EC
EC
EC
FC
FC
DC
DC
DC
CC
CC
ENDCHAR
STARTCHAR Ncommaaccent
ENCODING 325
SWIDTH 410 0
DWIDTH 7 0
BBX 6 15 0 -3
BITMAP
CC
CC
EC
EC
EC
FC
FC
DC
DC
DC
CC
CC
00
30
30
ENDCHAR
STARTCHAR ncommaaccent
ENCODING 326
SWIDTH 410 0
DWIDTH 7 0
BBX 6 15 0 -3
BITMAP
CC
CC
EC
EC
EC
FC
FC
DC
DC
DC
CC
CC
00
30
30
ENDCHAR
STARTCHAR Ncaron
ENCODING 327
SWIDTH 410 0
DWIDTH 7 0
BBX 6 16 0 0
BITMAP
48
78
30
00
CC
CC
EC
EC
EC
FC
FC
DC
DC
DC
CC
CC
ENDCHAR
STARTCHAR ncaron
ENCODING 328
SWIDTH 410 0
DWIDTH 7 0
BBX 6 16 0 0
BITMAP
48
78
30
00
CC
CC
EC
EC
EC
FC
FC
DC
DC
DC
CC
CC
ENDCHAR
STARTCHAR Omacron
ENCODING 332
SWIDTH 406 0
DWIDTH 7 0
BBX 6 15 0 0
BITMAP
78
78
00
78
FC
CC
CC
CC
CC
CC
CC
CC
CC
FC
78
ENDCHAR
STARTCHAR omacron
ENCODING 333
SWIDTH 406 0
DWIDTH 7 0
BBX 6 15 0 0
BITMAP
78
78
00
78
FC
CC
CC
CC
CC
CC
CC
CC
CC
FC
78
ENDCHAR
STARTCHAR Obreve
ENCODING 334
SWIDTH 406 0
DWIDTH 7 0
BBX 6 15 0 0
BITMAP
78
78
00
78
FC
CC
CC
CC
CC
CC
CC
CC
CC
FC
78
ENDCHAR
STARTCHAR obreve
ENCODING 335
SWIDTH 406 0
DWIDTH 7 0
BBX 6 15 0 0
BITMAP
78
78
00
78
FC
CC
CC
CC
CC
CC
CC
CC
CC
FC
78
ENDCHAR
STARTCHAR OE
ENCODING 338
SWIDTH 544 0
DWIDTH 10 0
BBX 8 12 0 0
BITMAP
3F
7F
D8
D8
D8
DF
DF
D8
D8
D8
7F
3F
ENDCHAR
STARTCHAR oe
ENCODING 339
SWIDTH 544 0
DWIDTH 10 0
BBX 8 12 0 0
BITMAP
1F
7F
D8
D8
D8
DF
DF
D8
D8
D8
7F
3F
ENDCHAR
STARTCHAR Racute
ENCODING 340
SWIDTH 398 0
DWIDTH 7 0
BBX 6 16 0 -1
BITMAP
38
60
00
F0
F8
CC
CC
CC
FC
F8
FC
CC
CC
CC
CC
88
ENDCHAR
STARTCHAR racute
ENCODING 341
SWIDTH 398 0
DWIDTH 7 0
BBX 6 16 0 -1
BITMAP
38
60
00
F0
F8
CC
CC
CC
FC
F8
FC
CC
CC
CC
CC
88
ENDCHAR
STARTCHAR Rcommaaccent
ENCODING 342
SWIDTH 398 0
DWIDTH 7 0
BBX 6 15 0 -3
BITMAP
F0
F8
CC
CC
CC
FC
F8
FC
CC
CC
CC
CC
88
30
30
ENDCHAR
STARTCHAR rcommaaccent
ENCODING 343
SWIDTH 398 0
DWIDTH 7 0
BBX 6 15 0 -3
BITMAP
F0
F8
CC
CC
CC
FC
F8
FC
CC
CC
CC
CC
88
30
30
ENDCHAR
STARTCHAR Rcaron
ENCODING 344
SWIDTH 398 0
DWIDTH 7 0
BBX 6 16 0 -1
BITMAP
78
70
00
F0
F8
CC
CC
CC
FC
F8
FC
CC
CC
CC
CC
88
ENDCHAR
STARTCHAR rcaron
ENCODING 345
SWIDTH 398 0
DWIDTH 7 0
BBX 6 16 0 -1
BITMAP
78
70
00
F0
F8
CC
CC
CC
FC
F8
FC
CC
CC
CC
CC
88
ENDCHAR
STARTCHAR Sacute
ENCODING 346
SWIDTH 398 0
DWIDTH 7 0
BBX 6 15 0 0
BITMAP
38
70
00
78
FC
CC
CC
C0
70
38
1C
CC
CC
FC
78
ENDCHAR
STARTCHAR sacute
ENCODING 347
SWIDTH 398 0
DWIDTH 7 0
BBX 6 15 0 0
BITMAP
38
70
00
78
FC
CC
CC
C0
70
38
1C
CC
CC
FC
78
ENDCHAR
STARTCHAR Scircumflex
ENCODING 348
SWIDTH 398 0
DWIDTH 7 0
BBX 6 15 0 0
BITMAP
30
78
00
78
FC
CC
CC
C0
70
38
1C
CC
CC
FC
78
ENDCHAR
STARTCHAR scircumflex
ENCODING 349
SWIDTH 398 0
DWIDTH 7 0
BBX 6 15 0 0
BITMAP
30
78
00
78
FC
CC
CC
C0
70
38
1C
CC
CC
FC
78
ENDCHAR
STARTCHAR Scedilla
ENCODING 350
SWIDTH 398 0
DWIDTH 7 0
BBX 6 16 0 -4
BITMAP
78
FC
CC
CC
C0
70
38
1C
CC
CC
FC
78
30
38
08
38
ENDCHAR
STARTCHAR scedilla
ENCODING 351
SWIDTH 398 0
DWIDTH 7 0
BBX 6 16 0 -4
BITMAP
78
FC
CC
CC
C0
70
38
1C
CC
CC
FC
78
30
38
08
38
ENDCHAR
STARTCHAR Scaron
ENCODING 352
SWIDTH 398 0
DWIDTH 7 0
BBX 6 15 0 0
BITMAP
78
30
00
78
FC
CC
CC
C0
70
38
1C
CC
CC
FC
78
ENDCHAR
STARTCHAR scaron
ENCODING 353
SWIDTH 398 0
DWIDTH 7 0
BBX 6 15 0 0
BITMAP
78
30
00
78
FC
CC
CC
C0
70
38
1C
CC
CC
FC
78
ENDCHAR
STARTCHAR Tcommaaccent
ENCODING 354
SWIDTH 401 0
DWIDTH 7 0
BBX 6 15 0 -3
BITMAP
FC
FC
30
30
30
30
30
30
30
30
30
30
00
30
30
ENDCHAR
STARTCHAR tcommaaccent
ENCODING 355
SWIDTH 401 0
DWIDTH 7 0
BBX 6 15 0 -3
BITMAP
FC
FC
30
30
30
30
30
30
30
30
30
30
00
30
30
ENDCHAR
STARTCHAR Tcaron
ENCODING 356
SWIDTH 401 0
DWIDTH 7 0
BBX 6 15 0 0
BITMAP
78
30
00
FC
FC
30
30
30
30
30
30
30
30
30
30
ENDCHAR
STARTCHAR tcaron
ENCODING 357
SWIDTH 401 0
DWIDTH 7 0
BBX 6 15 0 0
BITMAP
78
30
00
FC
FC
30
30
30
30
30
30
30
30
30
30
ENDCHAR
STARTCHAR Utilde
ENCODING 360
SWIDTH 409 0
DWIDTH 7 0
BBX 6 15 0 0
BITMAP
68
F8
00
CC
CC
CC
CC
CC
CC
CC
CC
CC
CC
FC
78
ENDCHAR
STARTCHAR utilde
ENCODING 361
SWIDTH 409 0
DWIDTH 7 0
BBX 6 15 0 0
BITMAP
6C
F8
00
CC
CC
CC
CC
CC
CC
CC
CC
CC
CC
F8
78
ENDCHAR
STARTCHAR Umacron
ENCODING 362
SWIDTH 409 0
DWIDTH 7 0
BBX 6 15 0 0
BITMAP
70
78
00
CC
CC
CC
CC
CC
CC
CC
CC
CC
CC
FC
78
ENDCHAR
STARTCHAR umacron
ENCODING 363
SWIDTH 409 0
DWIDTH 7 0
BBX 6 15 0 0
BITMAP
78
78
00
CC
CC
CC
CC
CC
CC
CC
CC
CC
CC
F8
78
ENDCHAR
STARTCHAR Ubreve
ENCODING 364
SWIDTH 409 0
DWIDTH 7 0
BBX 6 15 0 0
BITMAP
78
78
00
CC
CC
CC
CC
CC
CC
CC
CC
CC
CC
FC
78
ENDCHAR
STARTCHAR ubreve
ENCODING 365
SWIDTH 409 0
DWIDTH 7 0
BBX 6 15 0 0
BITMAP
78
78
00
CC
CC
CC
CC
CC
CC
CC
CC
CC
CC
F8
78
ENDCHAR
STARTCHAR Uring
ENCODING 366
SWIDTH 409 0
DWIDTH 7 0
BBX 6 15 0 0
BITMAP
30
30
00
CC
CC
CC
CC
CC
CC
CC
CC
CC
CC
FC
78
ENDCHAR
STARTCHAR uring
ENCODING 367
SWIDTH 409 0
DWIDTH 7 0
BBX 6 15 0 0
BITMAP
30
30
00
CC
CC
CC
CC
CC
CC
CC
CC
CC
CC
F8
78
ENDCHAR
STARTCHAR Wcircumflex
ENCODING 372
SWIDTH 560 0
DWIDTH 10 0
BBX 9 16 0 0
BITMAP
0800
1C00
3600
0000
D980
D980
DD00
DF00
5F00
7F00
7F00
7700
7600
7600
3600
2600
ENDCHAR
STARTCHAR wcircumflex
ENCODING 373
SWIDTH 560 0
DWIDTH 10 0
BBX 9 16 0 0
BITMAP
0800
1C00
3600
0000
D980
D980
DD00
DF00
5F00
7F00
7F00
7700
7600
7600
3600
2600
ENDCHAR
STARTCHAR Ycircumflex
ENCODING 374
SWIDTH 406 0
DWIDTH 7 0
BBX 6 15 0 0
BITMAP
30
78
00
CC
CC
D8
78
78
30
30
30
30
30
30
30
ENDCHAR
STARTCHAR ycircumflex
ENCODING 375
SWIDTH 406 0
DWIDTH 7 0
BBX 6 15 0 0
BITMAP
30
78
00
CC
CC
D8
78
78
30
30
30
30
30
30
30
ENDCHAR
STARTCHAR Ydieresis
ENCODING 376
SWIDTH 406 0
DWIDTH 7 0
BBX 6 15 0 0
BITMAP
78
78
00
CC
CC
D8
78
78
30
30
30
30
30
30
30
ENDCHAR
STARTCHAR Zacute
ENCODING 377
SWIDTH 411 0
DWIDTH 7 0
BBX 6 16 0 0
BITMAP
08
38
60
00
FC
FC
18
18
18
30
30
60
60
C0
FC
FC
ENDCHAR
STARTCHAR zacute
ENCODING 378
SWIDTH 411 0
DWIDTH 7 0
BBX 6 16 0 0
BITMAP
08
38
60
00
FC
FC
18
18
18
30
30
60
60
C0
FC
FC
ENDCHAR
STARTCHAR Zdotaccent
ENCODING 379
SWIDTH 411 0
DWIDTH 7 0
BBX 6 15 0 0
BITMAP
30
30
00
FC
FC
18
18
18
30
30
60
60
C0
FC
FC
ENDCHAR
STARTCHAR zdotaccent
ENCODING 380
SWIDTH 411 0
DWIDTH 7 0
BBX 6 15 0 0
BITMAP
30
30
00
FC
FC
18
18
18
30
30
60
60
C0
FC
FC
ENDCHAR
STARTCHAR Zcaron
ENCODING 381
SWIDTH 419 0
DWIDTH 8 0
BBX 6 16 0 0
BITMAP
40
78
30
00
FC
FC
18
18
18
30
30
60
60
C0
FC
FC
ENDCHAR
STARTCHAR zcaron
ENCODING 382
SWIDTH 419 0
DWIDTH 8 0
BBX 6 16 0 0
BITMAP
40
78
30
00
FC
FC
18
18
18
30
30
60
60
C0
FC
FC
ENDCHAR
STARTCHAR AEacute
ENCODING 508
SWIDTH 665 0
DWIDTH 12 0
BBX 10 16 0 0
BITMAP
0100
0700
0E00
0000
07C0
0FC0
0E00
0E00
1E00
1FC0
37C0
3E00
7E00
6600
C7C0
C7C0
ENDCHAR
STARTCHAR aeacute
ENCODING 509
SWIDTH 665 0
DWIDTH 12 0
BBX 10 16 0 0
BITMAP
0100
0700
0E00
0000
07C0
0FC0
0E00
0E00
1E00
1FC0
37C0
3E00
7E00
6600
C7C0
C7C0
ENDCHAR
STARTCHAR Oslashacute
ENCODING 510
SWIDTH 406 0
DWIDTH 7 0
BBX 6 15 0 0
BITMAP
38
60
00
7C
FC
FC
FC
FC
FC
FC
FC
FC
FC
FC
F8
ENDCHAR
STARTCHAR oslashacute
ENCODING 511
SWIDTH 406 0
DWIDTH 7 0
BBX 6 12 0 0
BITMAP
7C
FC
FC
FC
FC
FC
FC
FC
FC
FC
FC
F8
ENDCHAR
STARTCHAR circumflex
ENCODING 710
SWIDTH 237 0
DWIDTH 4 0
BBX 4 3 0 13
BITMAP
60
E0
F0
ENDCHAR
STARTCHAR caron
ENCODING 711
SWIDTH 232 0
DWIDTH 4 0
BBX 4 3 0 13
BITMAP
B0
F0
60
ENDCHAR
STARTCHAR breve
ENCODING 728
SWIDTH 241 0
DWIDTH 4 0
BBX 4 2 0 13
BITMAP
F0
F0
ENDCHAR
STARTCHAR dotaccent
ENCODING 729
SWIDTH 82 0
DWIDTH 1 0
BBX 2 2 0 13
BITMAP
80
C0
ENDCHAR
STARTCHAR ring
ENCODING 730
SWIDTH 140 0
DWIDTH 3 0
BBX 2 3 0 13
BITMAP
C0
C0
C0
ENDCHAR
STARTCHAR tilde
ENCODING 732
SWIDTH 319 0
DWIDTH 6 0
BBX 5 2 0 13
BITMAP
F8
F8
ENDCHAR
STARTCHAR Wgrave
ENCODING 7808
SWIDTH 560 0
DWIDTH 10 0
BBX 9 16 0 0
BITMAP
1000
1C00
0E00
0000
D980
D980
DD00
DF00
5F00
7F00
7F00
7700
7600
7600
3600
2600
ENDCHAR
STARTCHAR wgrave
ENCODING 7809
SWIDTH 560 0
DWIDTH 10 0
BBX 9 16 0 0
BITMAP
1000
1C00
0E00
0000
D980
D980
DD00
DF00
5F00
7F00
7F00
7700
7600
7600
3600
2600
ENDCHAR
STARTCHAR Wacute
ENCODING 7810
SWIDTH 560 0
DWIDTH 10 0
BBX 9 15 0 0
BITMAP
1C00
3800
0000
D980
D980
DD00
DF00
5F00
7F00
7F00
7700
7600
7600
3600
2600
ENDCHAR
STARTCHAR wacute
ENCODING 7811
SWIDTH 560 0
DWIDTH 10 0
BBX 9 15 0 0
BITMAP
1C00
3800
0000
D980
D980
DD00
DF00
5F00
7F00
7F00
7700
7600
7600
3600
2600
ENDCHAR
STARTCHAR Wdieresis
ENCODING 7812
SWIDTH 560 0
DWIDTH 10 0
BBX 9 15 0 0
BITMAP
3400
3600
0000
D980
D980
DD00
DF00
5F00
7F00
7F00
7700
7600
7600
3600
2600
ENDCHAR
STARTCHAR wdieresis
ENCODING 7813
SWIDTH 560 0
DWIDTH 10 0
BBX 9 15 0 0
BITMAP
3400
3600
0000
D980
D980
DD00
DF00
5F00
7F00
7F00
7700
7600
7600
3600
2600
ENDCHAR
STARTCHAR Ygrave
ENCODING 7922
SWIDTH 406 0
DWIDTH 7 0
BBX 6 15 0 0
BITMAP
70
18
00
CC
CC
D8
78
78
30
30
30
30
30
30
30
ENDCHAR
STARTCHAR ygrave
ENCODING 7923
SWIDTH 406 0
DWIDTH 7 0
BBX 6 15 0 0
BITMAP
70
18
00
CC
CC
D8
78
78
30
30
30
30
30
30
30
ENDCHAR
STARTCHAR endash
ENCODING 8211
SWIDTH 349 0
DWIDTH 6 0
BBX 5 2 0 5
BITMAP
F8
F8
ENDCHAR
STARTCHAR emdash
ENCODING 8212
SWIDTH 349 0
DWIDTH 6 0
BBX 5 2 0 5
BITMAP
F8
F8
ENDCHAR
STARTCHAR quoteleft
ENCODING 8216
SWIDTH 131 0
DWIDTH 2 0
BBX 2 3 0 9
BITMAP
C0
C0
C0
ENDCHAR
STARTCHAR quoteright
ENCODING 8217
SWIDTH 131 0
DWIDTH 2 0
BBX 2 3 0 9
BITMAP
C0
C0
C0
ENDCHAR
STARTCHAR quotedblleft
ENCODING 8220
SWIDTH 200 0
DWIDTH 4 0
BBX 3 3 0 9
BITMAP
E0
E0
E0
ENDCHAR
STARTCHAR quotedblright
ENCODING 8221
SWIDTH 200 0
DWIDTH 4 0
BBX 3 3 0 9
BITMAP
E0
E0
E0
ENDCHAR
STARTCHAR bullet
ENCODING 8226
SWIDTH 155 0
DWIDTH 3 0
BBX 2 3 0 5
BITMAP
C0
C0
40
ENDCHAR
STARTCHAR fraction
ENCODING 8260
SWIDTH 260 0
DWIDTH 5 0
BBX 6 12 -1 0
BITMAP
0C
0C
08
18
18
30
30
20
60
60
C0
C0
ENDCHAR
STARTCHAR Euro
ENCODING 8364
SWIDTH 370 0
DWIDTH 7 0
BBX 7 12 -1 0
BITMAP
3C
3E
60
60
FC
F8
60
FC
78
60
3E
1C
ENDCHAR
STARTCHAR trademark
ENCODING 8482
SWIDTH 650 0
DWIDTH 12 0
BBX 11 5 0 7
BITMAP
FA60
FA60
2360
23E0
22A0
ENDCHAR
STARTCHAR commaaccent
ENCODING 63171
SWIDTH 260 0
DWIDTH 5 0
BBX 2 2 1 -3
BITMAP
C0
C0
ENDCHAR
STARTCHAR Acute
ENCODING 63177
SWIDTH 247 0
DWIDTH 4 0
BBX 4 2 0 13
BITMAP
70
E0
ENDCHAR
STARTCHAR Caron
ENCODING 63178
SWIDTH 232 0
DWIDTH 4 0
BBX 4 3 0 13
BITMAP
B0
F0
60
ENDCHAR
STARTCHAR Dieresis
ENCODING 63179
SWIDTH 229 0
DWIDTH 4 0
BBX 4 2 0 13
BITMAP
F0
F0
ENDCHAR
STARTCHAR Grave
ENCODING 63182
SWIDTH 222 0
DWIDTH 4 0
BBX 4 2 0 13
BITMAP
E0
70
ENDCHAR
STARTCHAR Macron
ENCODING 63184
SWIDTH 231 0
DWIDTH 4 0
BBX 4 2 0 13
BITMAP
F0
F0
ENDCHAR
STARTCHAR uniF8FF
ENCODING 63743
SWIDTH 0 0
DWIDTH 0 0
BBX 1 1 0 0
BITMAP
00
ENDCHAR
STARTCHAR .notdef
ENCODING -1
SWIDTH 210 0
DWIDTH 4 0
BBX 1 1 0 0
BITMAP
00
ENDCHAR
STARTCHAR Ring
ENCODING -1
SWIDTH 140 0
DWIDTH 3 0
BBX 2 3 0 13
BITMAP
C0
C0
C0
ENDCHAR
STARTCHAR Tilde
ENCODING -1
SWIDTH 319 0
DWIDTH 6 0
BBX 6 3 0 11
BITMAP
60
FC
38
ENDCHAR
STARTCHAR Circumflex
ENCODING -1
SWIDTH 237 0
DWIDTH 4 0
BBX 4 3 0 13
BITMAP
60
E0
F0
ENDCHAR
STARTCHAR Cedilla
ENCODING -1
SWIDTH 201 0
DWIDTH 4 0
BBX 4 4 0 -4
BITMAP
40
70
B0
E0
ENDCHAR
STARTCHAR commaaccent.cap
ENCODING -1
SWIDTH 260 0
DWIDTH 5 0
BBX 2 3 1 -4
BITMAP
C0
C0
40
ENDCHAR
STARTCHAR Breve
ENCODING -1
SWIDTH 241 0
DWIDTH 4 0
BBX 4 2 0 13
BITMAP
F0
F0
ENDCHAR
ENDFONT
